<svg width="118" height="119" viewBox="0 0 118 119" fill="none" xmlns="http://www.w3.org/2000/svg">
<circle cx="59" cy="59.5" r="54.5" stroke="#6C6C6C" stroke-opacity="0.7" stroke-width="9"/>
<path d="M59 0.5L64.196 10H53.8037L59 0.5Z" fill="#D9D9D9"/>
<rect x="58" y="109.5" width="2" height="9" fill="#6C6C6C"/>
<rect x="58" y="0.5" width="2" height="9" fill="#6C6C6C"/>
<rect x="118" y="58.5" width="2" height="9" transform="rotate(90 118 58.5)" fill="#6C6C6C"/>
<rect x="9" y="58.5" width="2" height="9" transform="rotate(90 9 58.5)" fill="#6C6C6C"/>
<rect x="101.426" y="100.512" width="2" height="9" transform="rotate(135 101.426 100.512)" fill="#6C6C6C"/>
<rect x="24.3516" y="23.4375" width="2" height="9" transform="rotate(135 24.3516 23.4375)" fill="#6C6C6C"/>
<rect x="17.9878" y="101.926" width="2" height="9" transform="rotate(-135 17.9878 101.926)" fill="#6C6C6C"/>
<rect x="95.0625" y="24.8516" width="2" height="9" transform="rotate(-135 95.0625 24.8516)" fill="#6C6C6C"/>
<path d="M17.5568 65L14.3295 53.3636H16.1761L18.4432 62.375H18.5511L20.9091 53.3636H22.7386L25.0966 62.3807H25.2045L27.4659 53.3636H29.3182L26.0852 65H24.3182L21.8693 56.2841H21.7784L19.3295 65H17.5568Z" fill="#6C6C6C"/>
<path d="M63.6705 14.3636V26H62.0568L56.142 17.4659H56.0341V26H54.2784V14.3636H55.9034L61.8239 22.9091H61.9318V14.3636H63.6705Z" fill="#6C6C6C"/>
<path d="M60.625 97.4205C60.5644 96.8826 60.3144 96.4659 59.875 96.1705C59.4356 95.8712 58.8826 95.7216 58.2159 95.7216C57.7386 95.7216 57.3258 95.7973 56.9773 95.9489C56.6288 96.0966 56.358 96.3011 56.1648 96.5625C55.9754 96.8201 55.8807 97.1136 55.8807 97.4432C55.8807 97.7197 55.9451 97.9583 56.0739 98.1591C56.2064 98.3598 56.3788 98.5284 56.5909 98.6648C56.8068 98.7973 57.0379 98.9091 57.2841 99C57.5303 99.0871 57.767 99.1591 57.9943 99.2159L59.1307 99.5114C59.5019 99.6023 59.8826 99.7254 60.2727 99.8807C60.6629 100.036 61.0246 100.241 61.358 100.494C61.6913 100.748 61.9602 101.062 62.1648 101.438C62.3731 101.812 62.4773 102.261 62.4773 102.784C62.4773 103.443 62.3068 104.028 61.9659 104.54C61.6288 105.051 61.1383 105.455 60.4943 105.75C59.8542 106.045 59.0795 106.193 58.1705 106.193C57.2992 106.193 56.5455 106.055 55.9091 105.778C55.2727 105.502 54.7746 105.11 54.4148 104.602C54.0549 104.091 53.8561 103.485 53.8182 102.784H55.5795C55.6136 103.205 55.75 103.555 55.9886 103.835C56.2311 104.112 56.5398 104.318 56.9148 104.455C57.2936 104.587 57.7083 104.653 58.1591 104.653C58.6553 104.653 59.0966 104.576 59.483 104.42C59.8731 104.261 60.1799 104.042 60.4034 103.761C60.6269 103.477 60.7386 103.146 60.7386 102.767C60.7386 102.422 60.6402 102.14 60.4432 101.92C60.25 101.701 59.9867 101.519 59.6534 101.375C59.3239 101.231 58.9508 101.104 58.5341 100.994L57.1591 100.619C56.2273 100.366 55.4886 99.9924 54.9432 99.5C54.4015 99.0076 54.1307 98.3561 54.1307 97.5455C54.1307 96.875 54.3125 96.2898 54.6761 95.7898C55.0398 95.2898 55.5322 94.9015 56.1534 94.625C56.7746 94.3447 57.4754 94.2045 58.2557 94.2045C59.0436 94.2045 59.7386 94.3428 60.3409 94.6193C60.947 94.8958 61.4242 95.2765 61.7727 95.7614C62.1212 96.2424 62.303 96.7955 62.3182 97.4205H60.625Z" fill="#6C6C6C"/>
<path d="M96.2784 65V53.3636H103.574V54.875H98.0341V58.4205H103.193V59.9261H98.0341V63.4886H103.642V65H96.2784Z" fill="#6C6C6C"/>
<path d="M59 0L64.3923 10L53.5 10L59 0Z" fill="#6C6C6C"/>
</svg>
